<?xml version="1.0" encoding="iso-8859-1"?>
<!-- Generator: Adobe Illustrator 19.0.0, SVG Export Plug-In . SVG Version: 6.00 Build 0)  -->
<svg version="1.1" id="Capa_1" xmlns="http://www.w3.org/2000/svg" xmlns:xlink="http://www.w3.org/1999/xlink" x="0px" y="0px"
	 viewBox="0 0 468.305 468.305" style="enable-background:new 0 0 468.305 468.305;" xml:space="preserve">
<ellipse style="fill:#FCD462;" cx="135.255" cy="257.84" rx="135.255" ry="29.097"/>
<path style="fill:#F6C358;" d="M135.268,286.936c-74.7,0-135.255-13.028-135.255-29.099v33.948
	c0,16.071,60.556,29.098,135.255,29.098s135.255-13.028,135.255-29.098v-33.948C270.523,273.908,209.967,286.936,135.268,286.936z"
	/>
<g>
	<path style="fill:#DC8744;" d="M23.732,274.427v33.896c-2.855-0.856-5.495-1.855-7.922-2.783v-33.896
		C18.237,272.572,20.877,273.571,23.732,274.427z"/>
	<path style="fill:#DC8744;" d="M56.7,281.635v33.968c-2.711-0.428-5.281-0.856-7.849-1.356V280.35
		C51.419,280.779,53.989,281.207,56.7,281.635z"/>
	<path style="fill:#DC8744;" d="M89.741,285.346v33.968c-2.713-0.214-5.352-0.428-7.922-0.642v-33.968
		C84.388,284.918,87.028,285.132,89.741,285.346z"/>
	<path style="fill:#DC8744;" d="M122.708,286.916v33.968c-2.639,0-5.281-0.071-7.849-0.214v-33.968
		C117.428,286.845,120.069,286.916,122.708,286.916z"/>
	<path style="fill:#DC8744;" d="M155.749,286.702v33.968c-2.641,0.142-5.281,0.214-7.922,0.214v-33.968
		C150.469,286.916,153.108,286.845,155.749,286.702z"/>
	<path style="fill:#DC8744;" d="M188.717,284.703v33.968c-2.568,0.214-5.138,0.428-7.849,0.642v-33.968
		C183.579,285.132,186.149,284.918,188.717,284.703z"/>
	<path style="fill:#DC8744;" d="M221.758,280.35v33.896c-2.498,0.5-5.138,0.928-7.922,1.356v-33.968
		C216.621,281.207,219.26,280.779,221.758,280.35z"/>
	<path style="fill:#DC8744;" d="M254.726,271.645v33.896c-2.354,0.999-4.995,1.926-7.849,2.783v-33.896
		C249.731,273.571,252.372,272.643,254.726,271.645z"/>
</g>
<ellipse style="fill:#FCD462;" cx="175.023" cy="202.157" rx="135.255" ry="29.097"/>
<path style="fill:#F6C358;" d="M310.305,202.132V236.1c0,4.924-5.708,9.563-15.843,13.63c-2.354,0.999-4.995,1.926-7.849,2.783
	c-7.065,2.284-15.557,4.282-25.119,5.923c-2.498,0.5-5.138,0.928-7.922,1.356c-7.778,1.213-16.199,2.212-25.119,3.068
	c-2.568,0.214-5.138,0.428-7.849,0.642c-8.065,0.642-16.413,1.07-25.119,1.356c-2.641,0.142-5.281,0.214-7.922,0.214
	c-4.139,0.071-8.349,0.143-12.56,0.143c-4.209,0-8.42-0.071-12.56-0.143c-2.639,0-5.281-0.071-7.849-0.214
	c-8.635-0.286-17.056-0.714-25.119-1.356c-2.713-0.214-5.352-0.428-7.922-0.642c-8.92-0.856-17.34-1.855-25.119-3.068
	c-2.711-0.428-5.281-0.856-7.849-1.356c-9.563-1.641-18.055-3.639-25.119-5.923c-2.855-0.856-5.495-1.855-7.922-2.783
	c-10.061-4.068-15.77-8.706-15.77-13.63v-33.968c0,4.924,5.709,9.634,15.77,13.702c2.427,0.928,5.067,1.926,7.922,2.783
	c7.065,2.212,15.556,4.21,25.119,5.923c2.568,0.428,5.138,0.856,7.849,1.284c7.779,1.213,16.199,2.212,25.119,3.068
	c2.57,0.214,5.209,0.428,7.922,0.642c8.063,0.642,16.484,1.071,25.119,1.356c2.568,0.143,5.209,0.214,7.849,0.214
	c4.139,0.071,8.35,0.143,12.56,0.143c4.211,0,8.421-0.071,12.56-0.143c2.641,0,5.281-0.071,7.922-0.214
	c8.706-0.285,17.054-0.714,25.119-1.356c2.711-0.214,5.281-0.428,7.849-0.642c8.92-0.856,17.341-1.855,25.119-3.068
	c2.784-0.428,5.423-0.856,7.922-1.284c9.562-1.713,18.055-3.711,25.119-5.923c2.854-0.856,5.495-1.784,7.849-2.783
	C304.597,211.766,310.305,207.128,310.305,202.132z"/>
<g>
	<path style="fill:#DC8744;" d="M63.468,218.617v33.896c-2.855-0.856-5.495-1.855-7.922-2.783v-33.896
		C57.973,216.762,60.613,217.76,63.468,218.617z"/>
	<path style="fill:#DC8744;" d="M96.435,225.824v33.968c-2.711-0.428-5.281-0.856-7.849-1.356V224.54
		C91.155,224.968,93.725,225.396,96.435,225.824z"/>
	<path style="fill:#DC8744;" d="M129.476,229.535v33.968c-2.713-0.214-5.352-0.428-7.922-0.642v-33.968
		C124.124,229.107,126.764,229.321,129.476,229.535z"/>
	<path style="fill:#DC8744;" d="M162.444,231.105v33.968c-2.639,0-5.281-0.071-7.849-0.214v-33.968
		C157.164,231.034,159.805,231.105,162.444,231.105z"/>
	<path style="fill:#DC8744;" d="M195.485,230.891v33.968c-2.641,0.142-5.281,0.214-7.922,0.214v-33.968
		C190.205,231.105,192.844,231.034,195.485,230.891z"/>
	<path style="fill:#DC8744;" d="M228.453,228.893v33.968c-2.568,0.214-5.138,0.428-7.849,0.642v-33.968
		C223.315,229.321,225.885,229.107,228.453,228.893z"/>
	<path style="fill:#DC8744;" d="M261.494,224.54v33.896c-2.498,0.5-5.138,0.928-7.922,1.356v-33.968
		C256.356,225.396,258.996,224.968,261.494,224.54z"/>
	<path style="fill:#DC8744;" d="M294.462,215.834v33.896c-2.354,0.999-4.995,1.926-7.849,2.783v-33.896
		C289.467,217.76,292.108,216.833,294.462,215.834z"/>
</g>
<ellipse style="fill:#FCD462;" cx="135.255" cy="146.486" rx="135.255" ry="29.097"/>
<path style="fill:#F6C358;" d="M135.268,175.586c-74.7,0-135.255-13.028-135.255-29.099v33.948
	c0,16.071,60.556,29.098,135.255,29.098s135.255-13.028,135.255-29.098v-33.948C270.523,162.558,209.967,175.586,135.268,175.586z"
	/>
<g>
	<path style="fill:#DC8744;" d="M23.732,163.077v33.896c-2.855-0.856-5.495-1.855-7.922-2.783v-33.896
		C18.237,161.222,20.877,162.221,23.732,163.077z"/>
	<path style="fill:#DC8744;" d="M56.7,170.285v33.968c-2.711-0.428-5.281-0.856-7.849-1.356v-33.896
		C51.419,169.429,53.989,169.857,56.7,170.285z"/>
	<path style="fill:#DC8744;" d="M89.741,173.996v33.968c-2.713-0.214-5.352-0.428-7.922-0.642v-33.968
		C84.388,173.568,87.028,173.782,89.741,173.996z"/>
	<path style="fill:#DC8744;" d="M122.708,175.566v33.968c-2.639,0-5.281-0.071-7.849-0.214v-33.968
		C117.428,175.495,120.069,175.566,122.708,175.566z"/>
	<path style="fill:#DC8744;" d="M155.749,175.352v33.968c-2.641,0.142-5.281,0.214-7.922,0.214v-33.968
		C150.469,175.566,153.108,175.495,155.749,175.352z"/>
	<path style="fill:#DC8744;" d="M188.717,173.353v33.968c-2.568,0.214-5.138,0.428-7.849,0.642v-33.968
		C183.579,173.782,186.149,173.568,188.717,173.353z"/>
	<path style="fill:#DC8744;" d="M221.758,169.001v33.896c-2.498,0.5-5.138,0.928-7.922,1.356v-33.968
		C216.621,169.857,219.26,169.429,221.758,169.001z"/>
	<path style="fill:#DC8744;" d="M254.726,160.295v33.896c-2.354,0.999-4.995,1.926-7.849,2.783v-33.896
		C249.731,162.221,252.372,161.293,254.726,160.295z"/>
</g>
<circle style="fill:#F6C358;" cx="334.049" cy="328.003" r="134.256"/>
<circle style="fill:#FCD462;" cx="334.049" cy="328.003" r="114.563"/>
<path style="fill:#F6C358;" d="M334.109,428.255c-6.619,0-13.15-0.634-19.5-1.885l1.487-7.564c5.872,1.154,11.911,1.74,17.953,1.74
	l0.092,6.969l-0.002,0.74C334.128,428.255,334.118,428.255,334.109,428.255z M353.695,426.333l-1.506-7.564
	c5.934-1.18,11.768-2.954,17.343-5.269l2.959,7.12C366.45,423.131,360.124,425.053,353.695,426.333z M295.8,420.7
	c-6.051-2.5-11.881-5.612-17.329-9.251l4.281-6.412c5.03,3.357,10.411,6.23,15.993,8.536L295.8,420.7z M389.802,411.334
	l-4.292-6.405c5.015-3.362,9.727-7.237,14.005-11.52l5.456,5.448C400.339,403.497,395.235,407.693,389.802,411.334z
	 M263.276,399.007c-4.637-4.622-8.839-9.72-12.491-15.151l6.401-4.304c3.372,5.017,7.254,9.726,11.535,13.995L263.276,399.007z
	 M417.429,383.679l-6.408-4.289c3.364-5.03,6.243-10.409,8.553-15.985l7.124,2.952C424.193,372.398,421.076,378.227,417.429,383.679
	z M241.481,366.553c-2.521-6.047-4.449-12.371-5.731-18.792l7.561-1.51c1.184,5.925,2.961,11.757,5.286,17.335L241.481,366.553z
	 M432.388,347.555l-7.564-1.495c1.167-5.908,1.758-11.981,1.758-18.049v-0.405h7.711v0.405
	C434.293,334.58,433.653,341.156,432.388,347.555z M233.803,328.215v-0.203c0-6.504,0.627-13.011,1.864-19.336l7.568,1.48
	c-1.141,5.84-1.721,11.847-1.721,17.857L233.803,328.215z M424.749,309.581c-1.197-5.921-2.988-11.747-5.326-17.322l7.112-2.982
	c2.534,6.041,4.475,12.359,5.77,18.779L424.749,309.581z M248.45,292.798l-7.131-2.937c2.491-6.051,5.597-11.885,9.23-17.341
	l6.42,4.274C253.614,281.83,250.749,287.214,248.45,292.798z M410.804,276.308c-3.379-5.004-7.269-9.703-11.565-13.969l5.433-5.471
	c4.65,4.616,8.863,9.707,12.521,15.125L410.804,276.308z M268.445,262.751l-5.467-5.437c4.62-4.644,9.714-8.852,15.142-12.508
	l4.307,6.397C277.416,254.577,272.711,258.463,268.445,262.751z M385.184,250.878c-5.043-3.351-10.431-6.211-16.013-8.502
	l2.929-7.135c6.049,2.485,11.887,5.584,17.35,9.213L385.184,250.878z M298.384,242.6l-2.975-7.116
	c6.041-2.525,12.361-4.458,18.783-5.749l1.521,7.561C309.787,238.485,303.957,240.269,298.384,242.6z M351.809,237.18
	c-5.813-1.13-11.789-1.702-17.761-1.702l-0.213-5.377l0.141-2.334c6.391,0.028,13.007,0.619,19.304,1.845L351.809,237.18z"/>
<path style="fill:#DC8744;" d="M357.628,328.011c8.074-6.145,12.805-15.569,12.805-25.816c0-17.936-14.593-32.528-32.528-32.528
	h-3.657v-13.426h-6.713v13.426h-7.832v-13.426h-6.713v13.426h-6.713h-8.613v13.426h8.613v38.205h-8.613v13.426h8.613v38.205h-8.613
	v13.426h8.613h6.713v13.426h6.713v-13.426h7.832v13.426h6.713v-13.426h3.657c17.936,0,32.528-14.593,32.528-32.528
	C370.433,343.58,365.702,334.156,357.628,328.011z M337.904,372.929h-18.201v-38.205h18.201c10.533,0,19.103,8.57,19.103,19.103
	C357.007,364.359,348.437,372.929,337.904,372.929z M337.904,321.298h-18.201v-38.205h18.201c10.533,0,19.103,8.57,19.103,19.103
	S348.437,321.298,337.904,321.298z"/>
<ellipse style="fill:#FCD462;" cx="175.023" cy="90.797" rx="135.255" ry="29.097"/>
<path style="fill:#F6C358;" d="M310.305,90.782v33.968c0,4.924-5.708,9.563-15.843,13.63c-2.354,0.999-4.995,1.926-7.849,2.783
	c-7.065,2.284-15.557,4.282-25.119,5.923c-2.498,0.5-5.138,0.928-7.922,1.356c-7.778,1.213-16.199,2.212-25.119,3.068
	c-2.568,0.214-5.138,0.428-7.849,0.642c-8.065,0.642-16.413,1.07-25.119,1.356c-2.641,0.142-5.281,0.214-7.922,0.214
	c-4.139,0.071-8.349,0.143-12.56,0.143c-4.209,0-8.42-0.071-12.56-0.143c-2.639,0-5.281-0.071-7.849-0.214
	c-8.635-0.286-17.056-0.714-25.119-1.356c-2.713-0.214-5.352-0.428-7.922-0.642c-8.92-0.856-17.34-1.855-25.119-3.068
	c-2.711-0.428-5.281-0.856-7.849-1.356c-9.563-1.641-18.055-3.639-25.119-5.923c-2.855-0.856-5.495-1.855-7.922-2.783
	c-10.061-4.068-15.77-8.706-15.77-13.63V90.782c0,4.924,5.709,9.634,15.77,13.702c2.427,0.928,5.067,1.926,7.922,2.783
	c7.065,2.212,15.556,4.21,25.119,5.923c2.568,0.428,5.138,0.856,7.849,1.284c7.779,1.213,16.199,2.212,25.119,3.068
	c2.57,0.214,5.209,0.428,7.922,0.642c8.063,0.642,16.484,1.071,25.119,1.356c2.568,0.143,5.209,0.214,7.849,0.214
	c4.139,0.071,8.35,0.143,12.56,0.143c4.211,0,8.421-0.071,12.56-0.143c2.641,0,5.281-0.071,7.922-0.214
	c8.706-0.285,17.054-0.714,25.119-1.356c2.711-0.214,5.281-0.428,7.849-0.642c8.92-0.856,17.341-1.855,25.119-3.068
	c2.784-0.428,5.423-0.856,7.922-1.284c9.562-1.713,18.055-3.711,25.119-5.923c2.854-0.856,5.495-1.784,7.849-2.783
	C304.597,100.416,310.305,95.778,310.305,90.782z"/>
<g>
	<path style="fill:#DC8744;" d="M63.468,107.267v33.896c-2.855-0.856-5.495-1.855-7.922-2.783v-33.896
		C57.973,105.412,60.613,106.41,63.468,107.267z"/>
	<path style="fill:#DC8744;" d="M96.435,114.474v33.968c-2.711-0.428-5.281-0.856-7.849-1.356V113.19
		C91.155,113.618,93.725,114.046,96.435,114.474z"/>
	<path style="fill:#DC8744;" d="M129.476,118.185v33.968c-2.713-0.214-5.352-0.428-7.922-0.642v-33.968
		C124.124,117.757,126.764,117.971,129.476,118.185z"/>
	<path style="fill:#DC8744;" d="M162.444,119.755v33.968c-2.639,0-5.281-0.071-7.849-0.214v-33.968
		C157.164,119.684,159.805,119.755,162.444,119.755z"/>
	<path style="fill:#DC8744;" d="M195.485,119.541v33.968c-2.641,0.142-5.281,0.214-7.922,0.214v-33.968
		C190.205,119.755,192.844,119.684,195.485,119.541z"/>
	<path style="fill:#DC8744;" d="M228.453,117.543v33.968c-2.568,0.214-5.138,0.428-7.849,0.642v-33.968
		C223.315,117.971,225.885,117.757,228.453,117.543z"/>
	<path style="fill:#DC8744;" d="M261.494,113.19v33.896c-2.498,0.5-5.138,0.928-7.922,1.356v-33.968
		C256.356,114.046,258.996,113.618,261.494,113.19z"/>
	<path style="fill:#DC8744;" d="M294.462,104.484v33.896c-2.354,0.999-4.995,1.926-7.849,2.783v-33.896
		C289.467,106.41,292.108,105.483,294.462,104.484z"/>
</g>
<path style="fill:#F6C358;" d="M270.557,35.165v33.896c0,4.995-5.709,9.634-15.843,13.701c-2.355,0.999-4.995,1.927-7.85,2.783
	c-0.357,0.143-0.643,0.285-0.999,0.357c-2.497,0.713-5.281,1.499-8.207,2.212c-4.852,1.213-10.133,2.355-15.913,3.354
	c-2.569,0.428-5.209,0.856-7.921,1.284c-1.142,0.142-2.283,0.357-3.425,0.5c-2.64,0.428-5.352,0.785-8.207,1.142
	c-4.353,0.5-8.849,0.999-13.487,1.356c-2.569,0.285-5.209,0.5-7.85,0.713c-1.998,0.143-3.997,0.286-5.995,0.428
	c-2.711,0.214-5.423,0.357-8.206,0.5c-3.568,0.143-7.208,0.357-10.918,0.428c-2.64,0.071-5.281,0.143-7.921,0.143
	c-2.783,0.143-5.565,0.143-8.421,0.143c-1.355,0.071-2.711,0.071-4.139,0.071c-1.356,0-2.712,0-4.067-0.071
	c-2.855,0-5.709,0-8.492-0.143c-2.64,0-5.281-0.071-7.85-0.143c-3.711-0.071-7.422-0.285-10.99-0.428
	c-2.782-0.142-5.566-0.285-8.206-0.5c-1.998-0.142-3.997-0.285-5.924-0.428c-2.712-0.214-5.352-0.428-7.921-0.713
	c-4.639-0.357-9.134-0.856-13.416-1.356c-2.854-0.357-5.566-0.713-8.206-1.142c-1.214-0.143-2.355-0.357-3.497-0.5
	c-2.712-0.428-5.352-0.856-7.85-1.284c-5.781-1.071-11.133-2.141-15.985-3.354c-2.926-0.713-5.638-1.499-8.207-2.284
	c-0.285-0.071-0.642-0.214-0.928-0.285c-2.854-0.928-5.495-1.855-7.921-2.783C5.736,78.695,0.027,74.057,0.027,69.061V35.165
	c0,5.352,6.708,10.347,18.34,14.629c1.641,0.571,3.425,1.213,5.352,1.784c0.286,0.071,0.643,0.214,0.928,0.285
	c2.569,0.785,5.281,1.57,8.207,2.284c4.852,1.213,10.204,2.355,15.985,3.354c2.497,0.428,5.138,0.856,7.85,1.284
	c1.142,0.143,2.283,0.357,3.497,0.5c2.639,0.428,5.352,0.785,8.206,1.142c4.282,0.5,8.777,0.999,13.416,1.356
	c2.569,0.286,5.209,0.5,7.921,0.714c1.927,0.142,3.925,0.285,5.924,0.428c2.639,0.214,5.424,0.357,8.206,0.499
	c3.568,0.143,7.279,0.357,10.99,0.429c2.569,0.071,5.209,0.142,7.85,0.142c2.783,0.143,5.638,0.143,8.492,0.143
	c1.355,0.071,2.711,0.071,4.067,0.071c1.428,0,2.783,0,4.139-0.071c2.855,0,5.638,0,8.421-0.143c2.64,0,5.281-0.071,7.921-0.142
	c3.711-0.071,7.35-0.286,10.918-0.429c2.783-0.142,5.495-0.285,8.206-0.499c1.998-0.143,3.997-0.286,5.995-0.428
	c2.64-0.214,5.281-0.428,7.85-0.714c4.639-0.357,9.134-0.856,13.487-1.356c2.855-0.357,5.566-0.713,8.207-1.142
	c1.142-0.143,2.283-0.357,3.425-0.5c2.712-0.428,5.352-0.856,7.921-1.284c5.781-0.999,11.061-2.141,15.913-3.354
	c2.926-0.713,5.709-1.498,8.207-2.212c0.356-0.071,0.642-0.214,0.999-0.357c1.855-0.571,3.639-1.142,5.281-1.784
	C263.849,45.512,270.557,40.517,270.557,35.165z"/>
<g>
	<path style="fill:#DC8744;" d="M23.719,49.794v35.752c-2.854-0.928-5.495-1.855-7.921-2.783V49.794H23.719z"/>
	<path style="fill:#DC8744;" d="M56.688,45.869v46.884c-2.712-0.428-5.352-0.856-7.85-1.284v-45.6H56.688z"/>
	<path style="fill:#DC8744;" d="M89.728,43.942v52.522c-2.712-0.214-5.352-0.428-7.921-0.713V43.942H89.728z"/>
	<path style="fill:#DC8744;" d="M122.697,43.514v54.448c-2.64,0-5.281-0.071-7.85-0.143V43.514H122.697z"/>
	<path style="fill:#DC8744;" d="M155.737,43.942V97.82c-2.64,0.071-5.281,0.143-7.921,0.143v-54.02H155.737z"/>
	<path style="fill:#DC8744;" d="M188.706,45.869V95.75c-2.569,0.285-5.209,0.5-7.85,0.713V45.869H188.706z"/>
	<path style="fill:#DC8744;" d="M221.746,49.794v41.675c-2.569,0.428-5.209,0.856-7.921,1.284V49.794H221.746z"/>
	<path style="fill:#DC8744;" d="M254.714,49.794v32.969c-2.355,0.999-4.995,1.927-7.85,2.783V49.794H254.714z"/>
</g>
<path style="fill:#FCD462;" d="M135.268,6.046C60.569,6.046,0.013,19.074,0.013,35.145c0,16.071,60.556,29.098,135.255,29.098
	c74.7,0,135.257-13.028,135.257-29.098C270.524,19.074,209.967,6.046,135.268,6.046z"/>
<path style="fill:#F6C358;" d="M135.268,13.736c-66.999,0-121.313,9.585-121.313,21.408c0,11.823,54.314,21.408,121.313,21.408
	c67,0,121.314-9.585,121.314-21.408C256.582,23.321,202.268,13.736,135.268,13.736z"/>
<path style="fill:#DC8744;" d="M152.789,31.762c5.05-1.192,7.503-2.934,6.803-4.719c-1.13-2.881-10.299-5.023-20.537-5.023h-2.087
	l-0.004-1.828h-3.7l-0.128,1.828h-4.47l0.283-1.828h-3.7l-0.415,1.828h-3.832h-4.916l-0.77,1.964h5.099l-1.939,6.479h-5.7
	l-1.041,2.655h5.946l-2.69,8.989h-6.781l-1.486,3.789h7.132h5.559l-0.954,4.203h5.863l0.65-4.203h6.485l-0.295,4.203h5.863
	l-0.009-4.203h3.028c14.853,0,25.329-4.1,23.574-8.577C162.712,34.998,158.668,33,152.789,31.762z M139.89,42.106h-14.33l1.39-8.989
	h12.566c7.272,0,13.639,1.818,14.228,4.2C154.377,39.877,148.182,42.106,139.89,42.106z M139.406,30.462H127.36l1.002-6.479h10.775
	c6.235,0,11.638,1.331,12.065,3.059C151.656,28.879,146.376,30.462,139.406,30.462z"/>
<g>
</g>
<g>
</g>
<g>
</g>
<g>
</g>
<g>
</g>
<g>
</g>
<g>
</g>
<g>
</g>
<g>
</g>
<g>
</g>
<g>
</g>
<g>
</g>
<g>
</g>
<g>
</g>
<g>
</g>
</svg>
